<svg xmlns="http://www.w3.org/2000/svg" viewBox="0 0 36.56 25.14"><defs><style>.cls-1{fill:#eef3f8;}.cls-2{fill:#41479b;}.cls-3{fill:#dc251c;}.cls-4{fill:#c5d0ec;}</style></defs><g id="Layer_2" data-name="Layer 2"><g id="Landing"><g id="кнопки_API_Services_Login_EN_" data-name="кнопки &quot;API, Services, Login, EN&quot;"><rect class="cls-1" width="36.56" height="25.14"/><rect class="cls-2" width="20.57" height="16"/><rect class="cls-3" x="20.57" width="16" height="2.29"/><rect class="cls-3" x="20.57" y="4.57" width="16" height="2.29"/><rect class="cls-3" x="20.57" y="9.14" width="16" height="2.29"/><rect class="cls-3" x="20.57" y="13.71" width="16" height="2.29"/><rect class="cls-3" y="18.28" width="36.56" height="2.29"/><rect class="cls-3" y="22.85" width="36.56" height="2.29"/><rect class="cls-4" x="2.29" y="2.29" width="2.29" height="2.29"/><rect class="cls-4" x="6.86" y="2.29" width="2.29" height="2.29"/><rect class="cls-4" x="11.43" y="2.29" width="2.29" height="2.29"/><rect class="cls-4" x="16" y="2.29" width="2.29" height="2.29"/><rect class="cls-4" x="2.29" y="6.86" width="2.29" height="2.29"/><rect class="cls-4" x="6.86" y="6.86" width="2.29" height="2.29"/><rect class="cls-4" x="11.43" y="6.86" width="2.29" height="2.29"/><rect class="cls-4" x="4.57" y="9.14" width="2.29" height="2.29"/><rect class="cls-4" x="9.14" y="9.14" width="2.29" height="2.29"/><rect class="cls-4" x="13.71" y="9.14" width="2.29" height="2.29"/><rect class="cls-4" x="4.57" y="4.57" width="2.29" height="2.29"/><rect class="cls-4" x="9.14" y="4.57" width="2.29" height="2.29"/><rect class="cls-4" x="13.71" y="4.57" width="2.29" height="2.29"/><rect class="cls-4" x="16" y="6.86" width="2.29" height="2.29"/><rect class="cls-4" x="2.29" y="11.43" width="2.29" height="2.29"/><rect class="cls-4" x="6.86" y="11.43" width="2.29" height="2.29"/><rect class="cls-4" x="11.43" y="11.43" width="2.29" height="2.29"/><rect class="cls-4" x="16" y="11.43" width="2.29" height="2.29"/></g></g></g></svg>