<svg xmlns="http://www.w3.org/2000/svg" viewBox="0 0 21.5 11.5"><defs><style>.cls-1,.cls-2{fill:#808d9b;}.cls-2{fill-rule:evenodd;}</style></defs><g id="Layer_2" data-name="Layer 2"><g id="Login-ru"><g id="Password"><g id="icon"><path class="cls-1" d="M5.75,3.75a2,2,0,1,0,2,2A2,2,0,0,0,5.75,3.75Z"/><path class="cls-2" d="M5.75,0A5.75,5.75,0,1,0,10.8,8.5H14v2.25a.76.76,0,0,0,.75.75h3.5a.76.76,0,0,0,.75-.75V8.5h1.75a.76.76,0,0,0,.75-.75v-3A1.75,1.75,0,0,0,19.75,3H10.8A5.74,5.74,0,0,0,5.75,0ZM1.5,5.75a4.25,4.25,0,0,1,8.15-1.7.75.75,0,0,0,.68.45h9.42a.25.25,0,0,1,.25.25V7H18.25a.76.76,0,0,0-.75.75V10h-2V7.75A.76.76,0,0,0,14.75,7H10.33a.75.75,0,0,0-.68.45A4.25,4.25,0,0,1,1.5,5.75Z"/></g></g></g></g></svg>