<svg xmlns="http://www.w3.org/2000/svg" viewBox="0 0 22.42 24.7"><defs><style>.cls-1{fill:#fff;stroke:#fff;stroke-miterlimit:10;stroke-width:0.2px;fill-rule:evenodd;}</style></defs><g id="Layer_2" data-name="Layer 2"><g id="mobile"><path class="cls-1" d="M16.31,2.07a6.9,6.9,0,0,0-5-2,6.94,6.94,0,0,0-5.06,2A7.14,7.14,0,0,0,4.27,7.19,6.62,6.62,0,0,0,7,12.87a6,6,0,0,0,.9.55,10.37,10.37,0,0,0-4.17,2.27A14.44,14.44,0,0,0,.15,21.14.63.63,0,0,0,.5,22a.64.64,0,0,0,.84-.35,13.17,13.17,0,0,1,3.26-5,9.53,9.53,0,0,1,6.66-2.37,9.63,9.63,0,0,1,6.34,2.1,12.23,12.23,0,0,1,3.28,4.55,1.75,1.75,0,0,1-1.72,2.38H4.28a.65.65,0,0,0,0,1.29H19.16a3,3,0,0,0,2.9-4.2,13.52,13.52,0,0,0-3.64-5,9.91,9.91,0,0,0-3.72-1.94,6.43,6.43,0,0,0,1.94-1.67,7.6,7.6,0,0,0,1.6-4.59A7.1,7.1,0,0,0,16.31,2.07Zm-.92.9A5.84,5.84,0,0,1,17,7.19,6.32,6.32,0,0,1,15.63,11a5.28,5.28,0,0,1-4.37,2,6.48,6.48,0,0,1-3.51-1.16A5.37,5.37,0,0,1,5.56,7.19,5.88,5.88,0,0,1,7.12,3a5.63,5.63,0,0,1,4.14-1.58A5.62,5.62,0,0,1,15.39,3Z"/></g></g></svg>