<svg width="333" height="61" viewBox="0 0 333 61" fill="none" xmlns="http://www.w3.org/2000/svg">
<path d="M0 32.4399C0 21.7899 8.28 13.45 18.93 13.45C27.09 13.45 33.5 18.12 36.3 24.72L28.76 27.9C27.08 23.91 23.47 21.36 18.98 21.36C12.81 21.36 8.21 26.2799 8.21 32.4399C8.21 38.4799 12.82 43.4599 19.05 43.4599C23.78 43.4599 27.21 40.6599 28.89 36.6699L36.42 39.91C33.56 46.64 27.39 51.3699 18.92 51.3699C8.28 51.3699 0 42.8999 0 32.4399Z" fill="#F3F5FF"/>
<path d="M39.6001 4.55005H48.0101V18.56C50.5001 15.38 54.2401 13.45 58.9101 13.45C68.0601 13.45 73.3601 19.1201 73.3601 29.0201V50.6301H64.7701V29.9501C64.7701 24.2201 62.0301 20.73 56.5501 20.73C51.8201 20.73 48.0801 24.28 48.0801 30.63V50.62H39.6001V4.55005Z" fill="#F3F5FF"/>
<path d="M76.96 32.51C76.96 21.86 85.24 13.46 95.89 13.46C106.72 13.46 114.63 21.43 114.63 32.2V35.38H84.99C86.17 40.55 90.22 43.97 96.2 43.97C100.93 43.97 104.54 41.48 106.29 37.56L113.2 41.55C110.02 47.47 104.42 51.39 96.2 51.39C84.74 51.37 76.96 43.03 76.96 32.51ZM85.43 28.33H106.1C104.85 23.41 101.12 20.86 95.89 20.86C90.85 20.86 86.92 23.85 85.43 28.33Z" fill="#F3F5FF"/>
<path d="M117.18 32.4399C117.18 20.3599 126.02 13.45 135.24 13.45C140.03 13.45 144.27 15.38 146.95 18.56V14.2H155.36V50.63H146.95V45.9C144.27 49.32 139.91 51.38 135.12 51.38C126.34 51.37 117.18 44.3999 117.18 32.4399ZM147.38 32.32C147.38 26.09 142.77 21.11 136.48 21.11C130.25 21.11 125.46 26.03 125.46 32.32C125.46 38.67 130.25 43.65 136.48 43.65C142.78 43.65 147.38 38.61 147.38 32.32Z" fill="#F3F5FF"/>
<path d="M168.8 46.33V60.32H160.46V14.2H168.8V19.06C171.35 15.63 175.65 13.46 180.63 13.46C189.78 13.46 198.56 20.37 198.56 32.45C198.56 44.41 189.47 51.38 180.69 51.38C175.71 51.37 171.35 49.57 168.8 46.33ZM190.28 32.32C190.28 26.03 185.49 21.11 179.32 21.11C173.03 21.11 168.49 26.09 168.49 32.32C168.49 38.61 173.04 43.65 179.32 43.65C185.49 43.65 190.28 38.67 190.28 32.32Z" fill="#F3F5FF"/>
<path d="M219.42 46.33V60.32H211.08V14.2H219.42V19.06C221.97 15.63 226.27 13.46 231.25 13.46C240.4 13.46 249.18 20.37 249.18 32.45C249.18 44.41 240.09 51.38 231.31 51.38C226.33 51.37 221.98 49.57 219.42 46.33ZM240.91 32.32C240.91 26.03 236.12 21.11 229.95 21.11C223.66 21.11 219.12 26.09 219.12 32.32C219.12 38.61 223.67 43.65 229.95 43.65C236.11 43.65 240.91 38.67 240.91 32.32Z" fill="#64D2FF"/>
<path d="M256.91 0C260.21 0 262.2 2.12 262.2 5.29C262.2 8.46 260.21 10.52 256.91 10.52C253.49 10.52 251.62 8.46 251.62 5.29C251.62 2.12 253.67 0 256.91 0ZM252.67 14.2H261.14V50.63H252.67V14.2Z" fill="#64D2FF"/>
<path d="M264.81 32.4399C264.81 20.3599 273.65 13.45 282.87 13.45C287.66 13.45 291.9 15.38 294.58 18.56V14.2H302.99V50.63H294.58V45.9C291.9 49.32 287.54 51.38 282.75 51.38C273.97 51.37 264.81 44.3999 264.81 32.4399ZM295.01 32.32C295.01 26.09 290.4 21.11 284.11 21.11C277.88 21.11 273.09 26.03 273.09 32.32C273.09 38.67 277.88 43.65 284.11 43.65C290.41 43.65 295.01 38.61 295.01 32.32Z" fill="#64D2FF"/>
<path d="M308.09 14.2H316.43V19.62C318.11 16.01 321.22 14.2 325.77 14.2C328.45 14.2 330.5 14.82 332.18 15.76L329 23.73C327.75 22.92 326.38 22.3 323.96 22.3C319.04 22.3 316.49 24.92 316.49 31.2V50.63H308.08V14.2H308.09Z" fill="#64D2FF"/>
</svg>
