<svg xmlns="http://www.w3.org/2000/svg" viewBox="0 0 17.63 14.17"><defs><style>.cls-1{fill:#808d9b;fill-rule:evenodd;}</style></defs><g id="Layer_2" data-name="Layer 2"><g id="Login-ru"><g id="E-mail"><path id="icon" class="cls-1" d="M.18,3.66a31.48,31.48,0,0,0,.12,7.7A2.94,2.94,0,0,0,3,13.86L4.37,14a50.76,50.76,0,0,0,8.89,0l1.42-.12a3,3,0,0,0,2.66-2.5,31.48,31.48,0,0,0,.11-7.7c0-.28-.07-.56-.11-.85A2.94,2.94,0,0,0,14.68.32L13.26.19a52.78,52.78,0,0,0-8.89,0L3,.32A2.93,2.93,0,0,0,.3,2.81C.25,3.1.21,3.38.18,3.66ZM4.49,1.6a50,50,0,0,1,8.65,0l1.42.12A1.53,1.53,0,0,1,15.94,3a2.07,2.07,0,0,1,0,.22l-5.23,2.9a4,4,0,0,1-3.87,0L1.66,3.24l0-.22a1.53,1.53,0,0,1,1.39-1.3ZM16.15,4.76a27.34,27.34,0,0,1-.21,6.39,1.53,1.53,0,0,1-1.38,1.3l-1.42.13a50,50,0,0,1-8.65,0l-1.41-.13a1.53,1.53,0,0,1-1.39-1.3,27.34,27.34,0,0,1-.21-6.39L6.19,7.37a5.39,5.39,0,0,0,5.25,0Z"/></g></g></g></svg>