<?xml version="1.0" encoding="UTF-8"?>
<!DOCTYPE svg PUBLIC "-//W3C//DTD SVG 1.1//EN" "http://www.w3.org/Graphics/SVG/1.1/DTD/svg11.dtd">
<!-- Creator: CorelDRAW 2021 (64-Bit) -->
<svg xmlns="http://www.w3.org/2000/svg" xml:space="preserve" width="350px" height="350px" version="1.1" style="shape-rendering:geometricPrecision; text-rendering:geometricPrecision; image-rendering:optimizeQuality; fill-rule:evenodd; clip-rule:evenodd"
viewBox="0 0 2480 3507.43"
 xmlns:xlink="http://www.w3.org/1999/xlink"
 xmlns:xodm="http://www.corel.com/coreldraw/odm/2003">
 <defs>
  <style type="text/css">
   <![CDATA[
    .fil1 {fill:url(#id4);fill-rule:nonzero}
    .fil0 {fill:url(#id5);fill-rule:nonzero}
   ]]>
  </style>
    <clipPath id="id0">
     <rect x="1226.85" y="1170.55" width="1167.29" height="1150.4"/>
    </clipPath>
    <clipPath id="id1">
     <rect x="122.66" y="1170.55" width="1167.28" height="1150.4"/>
    </clipPath>
    <clipPath id="id2">
     <path d="M122.66 2320.95l1167.28 0 0 -1150.4 -1167.28 0 0 1150.4z"/>
    </clipPath>
    <clipPath id="id3">
     <rect x="122.66" y="1170.55" width="1167.28" height="1150.4"/>
    </clipPath>
  <radialGradient id="id4" gradientUnits="userSpaceOnUse" gradientTransform="matrix(-1.63669 -0 -0 1.34367 1847 -602)" cx="700.43" cy="1751.07" r="295.79" fx="700.43" fy="1751.07">
   <stop offset="0" style="stop-opacity:1; stop-color:#03D5F5"/>
   <stop offset="0.670588" style="stop-opacity:1; stop-color:#03D5F5"/>
   <stop offset="0.701961" style="stop-opacity:1; stop-color:#03CCEA"/>
   <stop offset="0.74902" style="stop-opacity:1; stop-color:#03B2CD"/>
   <stop offset="0.819608" style="stop-opacity:1; stop-color:#02899D"/>
   <stop offset="0.901961" style="stop-opacity:1; stop-color:#01505C"/>
   <stop offset="0.988235" style="stop-opacity:1; stop-color:#000809"/>
   <stop offset="1" style="stop-opacity:1; stop-color:black"/>
  </radialGradient>
  <radialGradient id="id5" gradientUnits="userSpaceOnUse" gradientTransform="matrix(1.63669 -0 -0 1.34367 -1149 -602)" xlink:href="#id4" cx="1804.54" cy="1751.07" r="295.79" fx="1804.54" fy="1751.07">
  </radialGradient>
 </defs>
 <g id="Слой_x0020_1">
  <metadata id="CorelCorpID_0Corel-Layer"/>
  <g id="_2670125259968">
   <g>
    <g>
     <path class="fil0" d="M2106.25 1853.92c0,201.72 -132.43,178.08 -295.79,178.08 -163.37,0 -295.79,21.92 -295.79,-178.08 0,-218.79 132.42,-396.14 295.79,-396.14 163.33,0.03 295.79,177.35 295.79,396.14z"/>
    </g>
   </g>
  </g>
  <g id="_2670125260448">
   <g>
    <g>
     <path class="fil1" d="M410.55 1853.92c0,201.72 132.43,178.08 295.79,178.08 163.36,0 295.79,21.92 295.79,-178.08 0,-218.79 -132.43,-396.14 -295.79,-396.14 -163.33,0.03 -295.79,177.35 -295.79,396.14z"/>
    </g>
   </g>
  </g>
 </g>
</svg>
