<svg xmlns="http://www.w3.org/2000/svg" viewBox="0 0 17.82 17.82"><defs><style>.cls-1{fill:#808d9b;}</style></defs><g id="Layer_2" data-name="Layer 2"><g id="Registration-ru"><g id="First_name" data-name="First name"><g id="icon"><path class="cls-1" d="M9,0a8.91,8.91,0,1,0,8.78,8.79A8.92,8.92,0,0,0,9,0Zm5.41,14a.17.17,0,0,1-.24,0l0,0a5.26,5.26,0,0,0-1.39-1.27,7.27,7.27,0,0,0-3.89-1.09A7.27,7.27,0,0,0,5,12.74,5.41,5.41,0,0,0,3.63,14a.17.17,0,0,1-.24,0l0,0a7.5,7.5,0,0,1-2-5,7.54,7.54,0,1,1,15.08-.13A7.5,7.5,0,0,1,14.45,14Z"/><path class="cls-1" d="M8.91,4.11A2.84,2.84,0,0,0,6,7.23a3.15,3.15,0,0,0,2.9,3,3.17,3.17,0,0,0,2.91-3A2.85,2.85,0,0,0,8.91,4.11Z"/></g></g></g></g></svg>