<svg xmlns="http://www.w3.org/2000/svg" viewBox="0 0 52.5 52.5"><defs><style>.cls-1{fill:#f3f5ff;}</style></defs><g id="Layer_2" data-name="Layer 2"><g id="Landing"><g id="плашка_Гарантия_на_возврат_" data-name="плашка &quot;Гарантия на возврат&quot;"><g id="плашка_867" data-name="плашка +867"><g id="_" data-name="+"><path class="cls-1" d="M26.25,52.5A26.25,26.25,0,1,1,52.5,26.25,26.28,26.28,0,0,1,26.25,52.5ZM26.25,4A22.22,22.22,0,1,0,48.47,26.25,22.23,22.23,0,0,0,26.25,4Z"/><path class="cls-1" d="M26.25,38.37a2,2,0,0,1-2-2V16.16a2,2,0,1,1,4,0V36.35A2,2,0,0,1,26.25,38.37Z"/><path class="cls-1" d="M36.35,28.27H16.16a2,2,0,1,1,0-4H36.35a2,2,0,0,1,0,4Z"/></g></g></g></g></g></svg>