<svg xmlns="http://www.w3.org/2000/svg" viewBox="0 0 17.82 17.82"><defs><style>.cls-1{fill:#808d9b;}</style></defs><g id="Layer_2" data-name="Layer 2"><g id="Registration-ru"><g id="Time"><g id="icon"><path class="cls-1" d="M8.91,17.82a8.91,8.91,0,1,1,8.91-8.91A8.92,8.92,0,0,1,8.91,17.82Zm0-16.45a7.54,7.54,0,1,0,7.54,7.54A7.55,7.55,0,0,0,8.91,1.37Z"/><path class="cls-1" d="M13,10.28H8.91a.67.67,0,0,1-.68-.68V3.43a.68.68,0,0,1,.68-.69.69.69,0,0,1,.69.69V8.91H13a.69.69,0,0,1,.69.69A.68.68,0,0,1,13,10.28Z"/></g></g></g></g></svg>